<svg role="img" viewBox="0 0 24 24" xmlns="http://www.w3.org/2000/svg"><title>Uber Eats</title><path d="M0 2.8645v4.9972c0 1.8834 1.3315 3.1297 3.0835 3.1297a2.9652 2.9652 0 0 0 2.1502-.876v.7425H6.445V2.8645H5.223v4.9339c0 1.2642-.8696 2.1198-1.9954 2.122-1.1386-.0023-1.997-.834-1.997-2.122V2.8645zm7.3625 0v7.9934h1.163v-.7318a2.9915 2.9915 0 0 0 2.1177.876c1.714.048 3.1295-1.3283 3.1295-3.0429s-1.4155-3.091-3.1295-3.0429a2.9674 2.9674 0 0 0-2.107.876V2.8645zm9.8857 2.0561c-1.6752-.0074-3.0369 1.3492-3.0356 3.0245 0 1.7366 1.3732 3.0373 3.1537 3.0373a3.123 3.123 0 0 0 2.5578-1.2438l-.8495-.6177a2.0498 2.0498 0 0 1-1.7083.8585c-.9763.0126-1.8147-.6915-1.971-1.6553h4.818v-.379c0-1.734-1.254-3.0238-2.9638-3.0245zm6.1632.0667a1.5943 1.5943 0 0 0-1.376.7657v-.7186h-1.163v5.8235h1.1741V7.5465c0-.9023.5581-1.4847 1.3268-1.4847h.4949V4.9886c-.1576.0013-.3186-.0009-.4568-.0013zm-6.2034.944a1.844 1.844 0 0 1 1.8337 1.486H15.424a1.844 1.844 0 0 1 1.784-1.486zm-6.6589.0056c1.1223-.0084 2.0365.8994 2.0445 2.0218.0084 1.124-.8957 2.0414-2.0193 2.05-1.1224.0083-2.0388-.8941-2.0498-2.0162-.0096-1.1244.8943-2.0455 2.0188-2.0556zM1.4358 13.2218v.7886h1.0218l1.93 4.71h.978l-.4205-1.0252.4205 1.0252h1.7065l2.99-5.4986H7.9935l-.7686 1.4136-.7693-1.4136zM12.0024 13.221v5.4986h4.2515v-1.345h-2.769v-.9035h2.7v-1.302h-2.7V14.566h2.769V13.221zm-7.4287 1.4022l1.054 1.94h-2.097zm5.5734.6035h.0006v3.4929h1.4823v-3.4929zm10.4815 1.0204c-1.4078 0-2.4334.9134-2.4334 2.0408 0 1.1456 1.0256 2.066 2.452 2.066.8755 0 1.5887-.4045 2.0034-1.0066V18.7188h1.4574v-3.4934h-1.4574v.5114c-.4187-.5878-1.1295-.9788-1.997-.9788zm5.2754.0014 3.1382.0196 1.7346 1.4575 3.1163 3.1915 3.0668a2.9915 2.9915 0 0 0 1.912-.6655v.532h1.5175v-5.9129h-1.509v.5257a3.0047 3.0047 0 0 0-1.9205-.6835c-.0244-.0007-.0492-.0006-.0701-.0008zm11.771.0077c-1.5855 0-2.7002.6437-2.7002 1.8854 0 .8607.6132 1.4213 1.936 1.695l1.4478.3286c.5694.1095.7224.2585.7224.4906 0 .3701-.438.6022-1.1279.6022-.876 0-1.3774-.1907-1.5723-.8477h-1.533c.219 1.2307 1.1563 2.05 3.0484 2.05h.0022c1.752 0 2.7422-.819 2.7422-1.9534 0-.8059-.5847-1.4084-1.8089-1.6668l-1.2943-.2605c-.7511-.1358-.988-.2738-.988-.5454 0-.357.3616-.5757 1.0295-.5757.7227 0 1.2527.1925 1.406.8473h1.5175c-.0854-1.2286-.9899-2.0497-2.8273-2.0497zM9.467 16.1815c1.0092.0096 1.8188.8369 1.8067 1.8461.0014 1.0046-.8198 1.816-1.8243 1.8025-1.0075-.0048-1.8203-.8256-1.8155-1.833.0048-1.0076.8255-1.8204 1.833-1.8156z"/></svg>
